<svg xmlns="http://www.w3.org/2000/svg" xmlns:xlink="http://www.w3.org/1999/xlink" width="40" height="40" viewBox="0 0 40 40">
    <defs>
        <path id="a" d="M35 17.386V16c0-4.274-1.664-8.293-4.687-11.313A15.886 15.886 0 0 0 19 0 15.886 15.886 0 0 0 7.687 4.687L9.101 6.1A13.902 13.902 0 0 1 19 2c3.74 0 7.256 1.456 9.899 4.1A13.902 13.902 0 0 1 33 16v1.386l-1.177-2.955L30 15.568l3.236 4.43h1.528L38 15.569l-1.823-1.137L35 17.386zM19 30c-3.74 0-7.256-1.456-9.899-4.101A13.902 13.902 0 0 1 5 16v-1.388l1.177 2.955L8 16.431l-3.236-4.432H3.236L0 16.431l1.823 1.136L3 14.612V16c0 4.274 1.664 8.293 4.687 11.313A15.886 15.886 0 0 0 19 32c4.274 0 8.293-1.664 11.313-4.687l-1.414-1.414A13.902 13.902 0 0 1 19 30m-2-19.997h4a3.005 3.005 0 0 1 0 6.008h-4v-6.008zM15 25h2v-3h6v-2h-6v-2h4c2.757 0 5-2.232 5-4.993A5.01 5.01 0 0 0 21 8h-6v8.01h-2V18h2v2h-2v2h2v3z"/>
    </defs>
    <g fill="none" fill-rule="evenodd" transform="translate(1 4)">
        <mask id="b" fill="#fff">
            <use xlink:href="#a"/>
        </mask>
        <use fill="#000" xlink:href="#a"/>
        <g fill="#00B956" mask="url(#b)">
            <path d="M-3-6h44v44H-3z"/>
        </g>
    </g>
</svg>
