<svg xmlns="http://www.w3.org/2000/svg" xmlns:xlink="http://www.w3.org/1999/xlink" width="40" height="40" viewBox="0 0 40 40">
    <defs>
        <path id="a" d="M16 32c8.8 0 16-7.2 16-16S24.8 0 16 0 0 7.2 0 16s7.2 16 16 16zm0-30c7.7 0 14 6.3 14 14s-6.3 14-14 14S2 23.7 2 16 8.3 2 16 2zm-4 23h2v-3h6v-2h-6v-2h4c2.8 0 5-2.2 5-5s-2.2-5-5-5h-6v8h-2v2h2v2h-2v2h2v3zm2-15h4c1.7 0 3 1.3 3 3s-1.3 3-3 3h-4v-6z"/>
    </defs>
    <g fill="none" fill-rule="evenodd" transform="translate(4 4)">
        <mask id="b" fill="#fff">
            <use xlink:href="#a"/>
        </mask>
        <use fill="#333" fill-rule="nonzero" xlink:href="#a"/>
        <g fill="#00B956" mask="url(#b)">
            <path d="M-6-6h44v44H-6z"/>
        </g>
    </g>
</svg>
