<svg xmlns="http://www.w3.org/2000/svg" xmlns:xlink="http://www.w3.org/1999/xlink" width="40" height="40" viewBox="0 0 40 40">
    <defs>
        <path id="a" d="M32 6.8c0-1.3-.5-2.6-1.5-3.5l-1.8-1.8c-1-1-2.2-1.5-3.5-1.5-1.3 0-2.6.5-3.5 1.5L3.3 19.8 0 30l2 2 10.2-3.3 18.3-18.3c1-1 1.5-2.2 1.5-3.6zM11.2 26.9l-8.7 2.8-.1-.1 2.8-8.7L20.9 5l6.1 6.1-15.8 15.8zM29.1 9l-.7.7-6.1-6.1.7-.7c1.1-1.1 3.1-1.1 4.2 0L29 4.7c.7.6 1 1.3 1 2.1s-.3 1.6-.9 2.2z"/>
    </defs>
    <g fill="none" fill-rule="evenodd" transform="translate(4 4)">
        <mask id="b" fill="#fff">
            <use xlink:href="#a"/>
        </mask>
        <use fill="#333" fill-rule="nonzero" xlink:href="#a"/>
        <g fill="#00B956" mask="url(#b)">
            <path d="M-6-6h44v44H-6z"/>
        </g>
    </g>
</svg>
