<svg xmlns="http://www.w3.org/2000/svg" xmlns:xlink="http://www.w3.org/1999/xlink" width="40" height="40" viewBox="0 0 40 40">
    <defs>
        <path id="a" d="M27.6 16.4c.7-2.6-.4-5.3-2.7-6.7V9c0-5-4-9-9-9s-9 4-9 9v.7c-2.2 1.4-3.2 4.1-2.5 6.7L0 20.8v3.7l2.4 2.4 6.2-6.2c1 .3 2 .3 3 0 .5 1.1 1.3 2 2.4 2.6V32h3.4l2.6-2.6v-6.2c1-.6 1.8-1.4 2.3-2.5.4 0 .7-.1 1.1-.1l6.2 6.2 2.4-2.4v-3.7l-4.4-4.3zM16 2c3.8 0 7 3.1 7 6.9-2-.4-4 .2-5.4 1.6-.4.4-.8.9-1.1 1.5-.3 0-.6.1-1 .2-.3-.6-.6-1.2-1.1-1.6C13 9.2 10.9 8.6 9 9c0-3.9 3.2-7 7-7zm-5 16v.7c-.8.2-1.6.2-2.4-.1l-.6-.3L2.4 24l-.4-.4v-2l4.7-4.7-.2-.6c-.8-2.1.2-4.4 2.3-5.2 1.5-.6 3.1-.2 4.2.9.3.3.5.6.7 1-1.7 1.1-2.7 3-2.7 5zm7.6 3.7l-.6.3v6.7l-1.4 1.4H16V22l-.6-.3c-2-.9-2.9-3.2-2.1-5.3.5-1.1 1.4-1.9 2.5-2.2-.3 2.8 1.4 5.5 4.1 6.3-.3.5-.8.9-1.3 1.2zm11.4 2l-.4.4-5.7-5.7-.6.2c-2 .8-4.4-.2-5.2-2.2-.8-2 .2-4.4 2.2-5.2.8-.3 1.6-.4 2.4-.2-.3 1.1-.9 2.1-1.7 3-.4.4-.5 1-.1 1.4.4.4 1 .5 1.4.1l.1-.1c.9-1 1.6-2.2 2-3.4l.1.1c1.1 1.1 1.5 2.8.9 4.3l-.2.6 4.8 4.6v2.1z"/>
    </defs>
    <g fill="none" fill-rule="evenodd" transform="translate(4 5)">
        <mask id="b" fill="#fff">
            <use xlink:href="#a"/>
        </mask>
        <use fill="#333" fill-rule="nonzero" xlink:href="#a"/>
        <g fill="#00B956" mask="url(#b)">
            <path d="M-4-5h40v40H-4z"/>
        </g>
    </g>
</svg>
